<?xml version="1.0" encoding="UTF-8" ?>
<!DOCTYPE svg PUBLIC "-//W3C//DTD SVG 1.1//EN" "http://www.w3.org/Graphics/SVG/1.1/DTD/svg11.dtd">
<svg width="315pt" height="54pt" viewBox="0 0 315 54" version="1.1" xmlns="http://www.w3.org/2000/svg">
<path fill="#ffffff" d=" M 0.00 0.00 L 315.00 0.00 L 315.00 54.00 L 0.00 54.00 L 0.00 0.00 Z" />
<path fill="#222222" d=" M 23.53 8.70 C 28.72 7.90 34.17 7.91 39.36 8.67 C 39.90 10.34 39.87 12.11 39.96 13.84 C 40.82 13.89 42.54 14.00 43.40 14.05 C 43.37 23.31 43.41 32.57 43.38 41.84 C 35.46 41.85 27.54 41.85 19.62 41.84 C 19.59 32.57 19.63 23.31 19.61 14.04 C 20.46 13.99 22.18 13.89 23.03 13.84 C 23.05 12.11 23.26 10.40 23.53 8.70 Z" />
<path fill="#ffffff" d=" M 25.87 13.86 C 25.88 12.94 25.88 12.02 25.89 11.10 C 29.73 11.00 33.58 10.97 37.41 11.16 C 37.20 12.04 37.02 12.93 36.74 13.80 C 33.13 14.11 29.49 13.92 25.87 13.86 Z" />
<path fill="#222222" d=" M 65.28 13.04 C 67.86 12.98 70.45 13.02 73.03 13.02 C 75.44 21.69 77.89 30.35 80.39 38.99 C 78.19 38.99 75.99 38.99 73.79 38.98 C 73.54 37.33 73.28 35.68 73.03 34.03 C 70.16 33.87 67.30 33.86 64.43 33.87 C 64.09 35.58 63.75 37.28 63.44 39.00 C 61.36 39.00 59.27 39.00 57.18 39.01 C 59.89 30.36 62.59 21.70 65.28 13.04 Z" />
<path fill="#222222" d=" M 146.93 15.75 C 151.06 12.23 157.02 12.55 161.88 14.20 C 161.50 16.05 161.12 17.89 160.71 19.73 C 157.64 18.76 153.43 17.01 150.94 20.08 C 149.05 23.44 149.17 27.93 150.93 31.32 C 153.29 35.05 158.08 33.09 161.46 32.36 C 161.24 34.18 161.10 36.02 160.70 37.81 C 155.12 40.37 146.88 39.12 144.16 33.04 C 141.97 27.45 142.23 20.02 146.93 15.75 Z" />
<path fill="#222222" d=" M 223.58 13.01 C 229.85 12.99 236.12 13.00 242.39 13.00 C 242.39 14.56 242.40 16.11 242.40 17.67 C 238.47 23.05 234.58 28.47 230.63 33.83 C 234.69 33.89 238.76 33.87 242.83 33.88 C 242.67 35.59 242.52 37.29 242.36 39.00 C 235.96 39.00 229.55 39.01 223.15 38.99 C 223.15 37.41 223.17 35.83 223.19 34.25 C 227.14 28.85 231.01 23.40 234.92 17.97 C 231.00 17.94 227.08 17.97 223.16 18.17 C 223.29 16.45 223.43 14.73 223.58 13.01 Z" />
<path fill="#222222" d=" M 12.12 17.87 C 12.35 15.10 15.27 14.13 17.54 13.54 C 17.62 23.13 17.72 32.73 17.48 42.32 C 15.00 41.48 11.90 40.24 12.00 37.10 C 11.83 30.70 11.64 24.25 12.12 17.87 Z" />
<path fill="#222222" d=" M 45.46 13.54 C 48.16 14.05 51.18 15.66 51.03 18.85 C 51.12 25.16 51.40 31.52 50.87 37.81 C 50.71 40.63 47.69 41.44 45.52 42.32 C 45.28 32.73 45.38 23.13 45.46 13.54 Z" />
<path fill="#ffffff" d=" M 65.97 28.97 C 66.93 25.49 67.91 22.02 69.02 18.60 C 69.95 22.05 70.78 25.54 71.63 29.01 C 69.75 29.00 67.86 28.98 65.97 28.97 Z" />
<path fill="#ffffff" d=" M 28.76 19.60 C 30.59 19.58 32.41 19.58 34.24 19.60 C 34.26 21.41 34.27 23.22 34.28 25.04 C 36.10 25.06 37.93 25.09 39.75 25.13 C 39.77 26.94 39.78 28.75 39.77 30.55 C 37.94 30.60 36.10 30.63 34.27 30.66 C 34.27 32.48 34.27 34.29 34.26 36.11 C 32.42 36.12 30.59 36.12 28.75 36.11 C 28.74 34.29 28.73 32.47 28.71 30.66 C 26.89 30.63 25.06 30.61 23.24 30.57 C 23.22 28.75 23.22 26.94 23.24 25.13 C 25.07 25.09 26.89 25.06 28.72 25.04 C 28.73 23.22 28.74 21.41 28.76 19.60 Z" />
<path fill="#222222" d=" M 84.36 22.50 C 87.29 19.38 91.93 19.75 95.73 20.71 C 95.48 22.43 95.21 24.14 94.91 25.85 C 92.91 25.77 90.58 24.44 88.85 25.92 C 87.20 27.91 87.46 31.08 88.96 33.09 C 90.81 34.81 93.44 33.50 95.62 33.44 C 95.29 35.16 94.99 36.89 94.61 38.61 C 91.11 39.05 86.85 39.69 84.19 36.78 C 80.88 32.85 81.03 26.37 84.36 22.50 Z" />
<path fill="#222222" d=" M 103.77 23.01 C 106.61 20.17 112.32 18.44 114.46 22.92 C 115.11 28.24 114.52 33.65 114.88 39.00 C 112.81 39.00 110.73 39.00 108.66 38.99 C 108.65 34.69 109.22 30.35 108.64 26.07 C 107.39 24.34 105.37 25.95 103.81 26.12 C 103.75 30.41 104.11 34.69 104.26 38.98 C 102.13 38.99 100.01 38.99 97.89 38.96 C 98.51 32.86 98.17 26.73 98.12 20.62 C 100.13 20.44 102.15 20.29 104.17 20.18 C 104.07 20.89 103.87 22.30 103.77 23.01 Z" />
<path fill="#222222" d=" M 123.40 20.61 C 126.58 19.49 130.74 19.64 133.10 22.33 C 135.01 24.51 134.56 27.54 134.51 30.20 C 130.69 30.38 126.86 30.21 123.04 30.54 C 124.67 35.40 130.13 34.44 133.93 33.20 C 133.66 34.84 133.37 36.47 133.06 38.11 C 129.72 38.91 126.05 39.64 122.80 38.11 C 115.87 35.08 116.19 23.12 123.40 20.61 Z" />
<path fill="#222222" d=" M 163.77 20.57 C 165.78 20.37 167.78 20.19 169.79 20.02 C 169.90 24.07 169.56 28.13 169.90 32.17 C 170.11 34.69 172.82 33.73 174.39 33.34 C 174.49 29.07 174.42 24.80 174.46 20.52 C 176.42 20.35 178.39 20.18 180.35 20.02 C 180.30 24.77 180.15 29.51 180.10 34.26 C 180.62 34.34 181.66 34.49 182.17 34.57 C 181.59 36.06 182.05 38.53 179.96 38.81 C 177.50 40.03 176.04 37.82 174.66 36.21 C 172.72 37.41 170.77 39.56 168.27 38.86 C 166.26 38.56 164.15 37.06 164.21 34.84 C 164.08 30.08 164.03 25.32 163.77 20.57 Z" />
<path fill="#222222" d=" M 185.14 20.39 C 187.12 20.23 189.12 20.09 191.11 20.00 C 191.10 21.23 191.09 22.46 191.08 23.69 C 192.39 21.65 194.25 20.06 196.68 19.59 C 196.77 21.62 196.83 23.65 196.91 25.68 C 194.71 25.97 191.53 25.97 190.90 28.69 C 190.69 32.12 191.17 35.55 191.27 38.98 C 189.14 38.99 187.02 38.99 184.89 38.96 C 185.52 32.79 185.15 26.58 185.14 20.39 Z" />
<path fill="#222222" d=" M 198.82 24.81 C 201.01 19.82 208.29 18.44 212.47 21.68 C 214.98 23.78 214.63 27.28 214.51 30.20 C 210.72 30.37 206.92 30.23 203.13 30.49 C 204.57 35.44 210.16 34.43 213.93 33.20 C 213.65 34.84 213.36 36.47 213.06 38.11 C 209.30 39.07 204.97 39.74 201.55 37.43 C 197.61 34.70 196.93 28.96 198.82 24.81 Z" />
<path fill="#222222" d=" M 250.36 20.52 C 254.35 19.14 260.00 20.13 261.62 24.53 C 263.10 28.67 262.84 34.17 259.30 37.22 C 255.21 40.29 247.81 39.70 245.69 34.56 C 243.78 29.70 244.77 22.39 250.36 20.52 Z" />
<path fill="#222222" d=" M 271.34 22.80 C 272.78 21.74 274.20 20.57 275.93 20.00 C 278.31 19.87 281.38 21.12 281.64 23.81 C 281.90 28.87 281.63 33.94 281.88 39.00 C 279.80 39.00 277.73 39.00 275.66 38.99 C 275.64 34.71 276.22 30.40 275.64 26.14 C 274.52 24.25 272.36 25.99 270.80 26.12 C 270.76 30.41 271.13 34.69 271.25 38.98 C 269.13 38.99 267.01 38.99 264.89 38.96 C 265.52 32.85 265.16 26.71 265.13 20.59 C 266.97 20.46 268.81 20.23 270.66 20.27 C 270.83 20.90 271.17 22.16 271.34 22.80 Z" />
<path fill="#222222" d=" M 285.55 25.47 C 287.35 20.00 295.09 18.28 299.46 21.67 C 301.98 23.77 301.63 27.27 301.51 30.20 C 297.69 30.38 293.86 30.20 290.05 30.54 C 291.65 35.43 297.14 34.42 300.93 33.20 C 300.65 34.84 300.36 36.47 300.06 38.11 C 296.51 38.99 292.52 39.69 289.16 37.80 C 284.93 35.48 283.91 29.71 285.55 25.47 Z" />
<path fill="#ffffff" d=" M 123.14 26.82 C 124.33 25.87 125.20 23.98 126.96 24.11 C 128.61 23.80 128.93 25.98 129.80 26.88 C 127.58 26.98 125.36 26.98 123.14 26.82 Z" />
<path fill="#ffffff" d=" M 203.15 26.82 C 204.32 25.89 205.21 23.98 206.94 24.12 C 208.60 23.76 208.92 25.99 209.80 26.88 C 207.58 26.98 205.36 26.97 203.15 26.82 Z" />
<path fill="#ffffff" d=" M 252.35 24.52 C 256.76 23.17 256.91 29.11 256.46 32.00 C 256.88 35.15 251.77 35.87 251.20 32.94 C 250.67 30.30 249.70 26.32 252.35 24.52 Z" />
<path fill="#ffffff" d=" M 290.15 26.82 C 291.32 25.87 292.20 24.01 293.94 24.09 C 295.64 23.88 295.94 25.89 296.78 26.89 C 294.57 26.98 292.35 26.97 290.15 26.82 Z" />
</svg>
