<?xml version="1.0" encoding="UTF-8" ?>
<!DOCTYPE svg PUBLIC "-//W3C//DTD SVG 1.1//EN" "http://www.w3.org/Graphics/SVG/1.1/DTD/svg11.dtd">
<svg width="182pt" height="45pt" viewBox="0 0 182 45" version="1.1" xmlns="http://www.w3.org/2000/svg">
<path fill="#ffffff" d=" M 0.00 0.00 L 182.00 0.00 L 182.00 45.00 L 0.00 45.00 L 0.00 0.00 Z" />
<path fill="#222222" d=" M 16.66 6.79 C 19.29 5.73 22.24 6.38 25.00 6.19 C 27.41 6.35 29.99 5.80 32.27 6.77 C 33.21 8.23 32.65 10.15 32.89 11.79 C 33.76 11.85 35.51 11.97 36.39 12.03 C 36.38 21.30 36.40 30.57 36.37 39.84 C 28.46 39.85 20.54 39.85 12.63 39.84 C 12.60 30.56 12.62 21.29 12.61 12.02 C 13.49 11.96 15.23 11.85 16.11 11.80 C 16.28 10.15 15.89 8.33 16.66 6.79 Z" />
<path fill="#ffffff" d=" M 18.88 11.85 C 18.88 10.94 18.88 10.02 18.87 9.11 C 22.62 9.00 26.36 9.00 30.11 9.11 C 30.13 10.02 30.15 10.94 30.17 11.85 C 26.41 11.97 22.64 11.98 18.88 11.85 Z" />
<path fill="#222222" d=" M 58.20 11.09 C 60.81 11.00 63.42 11.00 66.04 11.02 C 68.44 19.69 70.89 28.35 73.40 36.99 C 71.21 36.99 69.02 36.99 66.83 36.98 C 66.30 35.36 66.88 32.95 65.27 31.98 C 62.66 31.74 60.04 31.89 57.43 31.90 C 57.09 33.60 56.75 35.30 56.44 37.01 C 54.35 37.00 52.27 37.00 50.18 36.99 C 52.86 28.36 55.65 19.76 58.20 11.09 Z" />
<path fill="#222222" d=" M 80.01 12.95 C 84.15 10.26 89.44 10.68 93.91 12.25 C 93.50 14.09 93.08 15.93 92.64 17.77 C 90.14 17.04 87.39 15.60 84.78 16.72 C 82.27 17.65 81.66 20.65 81.65 23.01 C 81.57 25.74 81.90 29.04 84.31 30.76 C 87.16 32.52 90.45 30.90 93.39 30.32 C 93.21 32.22 93.01 34.12 92.79 36.01 C 88.37 37.37 83.16 37.64 79.23 34.84 C 75.80 32.40 74.88 27.95 74.83 23.99 C 74.90 19.83 76.30 15.26 80.01 12.95 Z" />
<path fill="#222222" d=" M 95.59 11.00 C 101.86 11.00 108.13 11.00 114.39 11.00 C 114.39 12.55 114.40 14.11 114.40 15.66 C 110.48 21.04 106.60 26.46 102.63 31.81 C 106.69 31.90 110.76 31.87 114.83 31.89 C 114.67 33.59 114.52 35.30 114.36 37.00 C 107.94 36.99 101.52 37.02 95.10 36.98 C 95.28 34.99 94.70 32.71 96.08 31.04 C 99.68 26.01 103.33 21.02 106.91 15.98 C 102.99 15.94 99.07 15.97 95.16 16.18 C 95.30 14.45 95.44 12.72 95.59 11.00 Z" />
<path fill="#222222" d=" M 5.31 15.05 C 5.99 12.76 8.49 12.05 10.58 11.70 C 10.58 21.18 10.71 30.67 10.51 40.15 C 8.50 39.55 5.89 38.95 5.29 36.60 C 4.47 33.12 5.01 29.49 4.87 25.94 C 5.01 22.32 4.46 18.61 5.31 15.05 Z" />
<path fill="#222222" d=" M 38.42 11.69 C 41.16 11.92 44.10 13.64 44.04 16.73 C 44.19 22.85 44.24 28.99 44.01 35.11 C 44.06 38.20 41.08 39.62 38.49 40.15 C 38.29 30.67 38.41 21.18 38.42 11.69 Z" />
<path fill="#ffffff" d=" M 58.98 26.98 C 59.92 23.48 60.92 20.01 62.01 16.56 C 62.95 20.02 63.77 23.52 64.63 27.00 C 62.74 27.00 60.86 26.99 58.98 26.98 Z" />
<path fill="#ffffff" d=" M 21.76 17.60 C 23.59 17.59 25.42 17.59 27.25 17.61 C 27.26 19.42 27.27 21.23 27.28 23.04 C 29.10 23.06 30.93 23.09 32.75 23.13 C 32.77 24.94 32.77 26.75 32.76 28.56 C 30.93 28.60 29.11 28.63 27.28 28.66 C 27.27 30.47 27.27 32.29 27.26 34.11 C 25.42 34.11 23.58 34.11 21.74 34.11 C 21.73 32.29 21.73 30.47 21.73 28.66 C 19.90 28.63 18.06 28.60 16.23 28.56 C 16.22 26.75 16.23 24.94 16.25 23.12 C 18.07 23.08 19.90 23.06 21.72 23.04 C 21.73 21.23 21.74 19.41 21.76 17.60 Z" />
<path fill="#222222" d=" M 122.40 18.50 C 126.36 17.16 131.93 18.13 133.59 22.44 C 135.11 26.60 134.86 32.13 131.31 35.21 C 127.07 38.46 119.11 37.58 117.45 31.89 C 115.89 27.13 117.01 20.24 122.40 18.50 Z" />
<path fill="#222222" d=" M 143.20 20.89 C 144.68 19.80 146.14 18.57 147.93 18.00 C 150.31 17.87 153.39 19.13 153.64 21.82 C 153.89 26.87 153.63 31.94 153.89 37.00 C 151.81 37.00 149.73 37.00 147.66 36.99 C 147.64 32.70 148.21 28.37 147.64 24.10 C 146.43 22.30 144.28 23.89 142.76 24.31 C 142.80 28.53 143.11 32.74 143.26 36.97 C 141.19 36.99 139.13 37.00 137.06 37.01 C 137.35 30.88 137.24 24.74 137.12 18.61 C 139.05 18.46 140.98 18.23 142.93 18.32 C 143.00 18.96 143.13 20.25 143.20 20.89 Z" />
<path fill="#222222" d=" M 162.40 18.61 C 165.59 17.48 169.76 17.65 172.13 20.35 C 174.00 22.55 173.60 25.57 173.45 28.22 C 169.73 28.36 166.00 28.26 162.28 28.42 C 163.36 33.51 169.23 32.45 172.88 31.15 C 172.63 32.75 172.39 34.35 172.17 35.95 C 168.83 37.02 165.06 37.63 161.77 36.10 C 154.87 33.04 155.21 21.11 162.40 18.61 Z" />
<path fill="#ffffff" d=" M 124.34 22.50 C 126.58 21.56 128.72 23.71 128.46 25.95 C 128.67 28.39 129.11 33.17 125.43 32.77 C 123.03 32.72 122.78 29.83 122.69 28.00 C 122.70 26.10 122.33 23.56 124.34 22.50 Z" />
<path fill="#ffffff" d=" M 162.27 24.86 C 163.33 23.79 164.16 21.96 165.95 22.10 C 167.70 21.81 168.02 23.82 168.64 24.95 C 166.51 25.00 164.39 24.97 162.27 24.86 Z" />
</svg>
